<?xml version="1.0" encoding="UTF-8"?><svg id="_레이어_1" xmlns="http://www.w3.org/2000/svg" xmlns:xlink="http://www.w3.org/1999/xlink" viewBox="0 0 1024 1024"><defs><style>.cls-1{fill:#fff;}.cls-2{fill:#40c5ff;}.cls-3{filter:url(#drop-shadow-2);}</style><filter id="drop-shadow-2" filterUnits="userSpaceOnUse"><feOffset dx="8.5" dy="8.5"/><feGaussianBlur result="blur" stdDeviation="5.67"/><feFlood flood-color="#003b93" flood-opacity=".75"/><feComposite in2="blur" operator="in"/><feComposite in="SourceGraphic"/></filter></defs><g class="cls-3"><g><path class="cls-2" d="M490.66,769.07l-198.57-87.58c-12.92-5.7-21.55-20.83-21.55-37.79V378.21c0-26.94,21.06-46.23,41.91-38.38l198.57,74.7c13.67,5.14,23.01,20.72,23.01,38.38v278.38c0,27.74-22.23,47.11-43.37,37.79Z"/><path class="cls-2" d="M517.05,766.96l200.28-82.57c16.24-6.7,27.09-24.47,27.09-44.39v-251.09c0-31.65-26.46-54.31-52.67-45.09l-200.28,70.43c-17.18,6.04-28.92,24.35-28.92,45.09v263.23c0,32.59,27.94,55.35,54.5,44.39Z"/><path class="cls-2" d="M501.63,488.58l-212.14-96.26c-21.81-9.9-21.07-41.69,1.19-50.52l195.62-77.58c7.44-2.95,15.67-3.05,23.18-.29l211.43,77.84c22.16,8.54,23.42,39.98,2.02,50.33l-198.82,96.2c-7.09,3.43-15.3,3.53-22.47,.28Z"/><path class="cls-1" d="M504.52,453.31c3.42,105.78,3.45,212.98,0,318.76-3.45-105.78-3.42-212.98,0-318.76h0Z"/><path class="cls-1" d="M272.54,364.28c78.19,26.35,156.25,56.28,231.98,89.03-78.2-26.32-156.24-56.3-231.98-89.03h0Z"/><path class="cls-1" d="M736.5,364.28c-75.74,32.73-153.78,62.71-231.98,89.03,75.73-32.76,153.79-62.69,231.98-89.03h0Z"/></g></g></svg>