<?xml version="1.0" encoding="UTF-8"?><svg xmlns="http://www.w3.org/2000/svg" xmlns:xlink="http://www.w3.org/1999/xlink" viewBox="0 0 1024 1024"><defs><style>.cls-1{fill:#fff;}.cls-2{fill:#40c5ff;}.cls-3{isolation:isolate;}.cls-4{opacity:.8;}.cls-5{filter:url(#drop-shadow-2);}</style><filter id="drop-shadow-2" filterUnits="userSpaceOnUse"><feOffset dx="7" dy="7"/><feGaussianBlur result="blur" stdDeviation="2.83"/><feFlood flood-color="#424e8b" flood-opacity=".75"/><feComposite in2="blur" operator="in"/><feComposite in="SourceGraphic"/></filter></defs><g class="cls-3"><g id="_레이어_1"><g class="cls-5"><g><polygon class="cls-2" points="715 695.52 715 430.51 485.51 298 256.03 430.51 256.03 695.52 485.51 828.03 715 695.52"/><rect class="cls-2" x="498.68" y="252.43" width="261.61" height="123.01" transform="translate(233.3 -267.31) rotate(29.21)"/><polygon class="cls-2" points="774 595 714 698 712 420 774 324 774 595"/><polygon class="cls-2" points="487.48 301.07 256 433 305.69 332.43 546 197 487.48 301.07"/></g><g><line class="cls-2" x1="257.96" y1="423.19" x2="483.58" y2="297.15"/><path class="cls-1" d="M257.96,423.19c73.19-44.81,149.08-87.23,225.62-126.05-73.18,44.83-149.09,87.21-225.62,126.05h0Z"/></g><g><line class="cls-2" x1="254.72" y1="425" x2="483.58" y2="297.15"/><path class="cls-1" d="M254.72,425c74.27-45.41,151.24-88.44,228.86-127.85-74.25,45.43-151.25,88.42-228.86,127.85h0Z"/></g><g><line class="cls-2" x1="719.14" y1="428.87" x2="483.58" y2="297.15"/><path class="cls-1" d="M719.14,428.87c-79.83-40.73-159.08-85.01-235.56-131.73,79.84,40.7,159.07,85.03,235.56,131.73h0Z"/></g><g><line class="cls-2" x1="720.02" y1="687.85" x2="719.14" y2="428.87"/><path class="cls-1" d="M720.02,687.85c-3.71-85.92-4.04-173.03-.88-258.97,3.74,85.92,4.01,173.03,.88,258.97h0Z"/></g><g class="cls-4"><g class="cls-4"><line class="cls-2" x1="483.58" y1="297.15" x2="535.62" y2="204.95"/><path class="cls-1" d="M483.58,297.15c6.93-16.3,15.21-31.9,23.84-47.32,8.74-15.37,17.81-30.51,28.2-44.87-6.92,16.31-15.2,31.9-23.84,47.32-8.75,15.36-17.82,30.51-28.2,44.87h0Z"/></g><g><line class="cls-2" x1="719.14" y1="428.87" x2="771.9" y2="335.4"/><path class="cls-1" d="M719.14,428.87c7.05-16.52,15.45-32.32,24.21-47.97,8.86-15.58,18.05-30.94,28.56-45.51-7.04,16.52-15.45,32.33-24.2,47.97-8.87,15.57-18.06,30.93-28.56,45.51h0Z"/></g></g></g></g></g></svg>