<?xml version="1.0" encoding="UTF-8"?><svg id="_레이어_1" xmlns="http://www.w3.org/2000/svg" xmlns:xlink="http://www.w3.org/1999/xlink" viewBox="0 0 1024 1024"><defs><style>.cls-1{fill:#40c5ff;}.cls-2{filter:url(#drop-shadow-1);}.cls-3{clip-path:url(#clippath);}</style><filter id="drop-shadow-1" filterUnits="userSpaceOnUse"><feOffset dx="7" dy="7"/><feGaussianBlur result="blur" stdDeviation="2.83"/><feFlood flood-color="#424e8b" flood-opacity=".75"/><feComposite in2="blur" operator="in"/><feComposite in="SourceGraphic"/></filter><clipPath id="clippath"><path class="cls-1" d="M779.92,637.67c0,145.86-120.97,264.09-270.2,264.09s-270.2-118.24-270.2-264.09S509.72,122.24,509.72,122.24c0,0,270.2,369.57,270.2,515.43Z"/></clipPath></defs><g class="cls-2"><path class="cls-1" d="M779.92,637.67c0,145.86-120.97,264.09-270.2,264.09s-270.2-118.24-270.2-264.09S509.72,122.24,509.72,122.24c0,0,270.2,369.57,270.2,515.43Z"/><g class="cls-3"><path class="cls-1" d="M784.31,638.55c0,145.86-120.97,264.09-270.2,264.09s-270.2-118.24-270.2-264.09S514.11,123.13,514.11,123.13c0,0,270.2,369.57,270.2,515.43Z"/></g></g></svg>