<?xml version="1.0" encoding="UTF-8"?><svg id="_레이어_1" xmlns="http://www.w3.org/2000/svg" xmlns:xlink="http://www.w3.org/1999/xlink" viewBox="0 0 1024 1024"><defs><style>.cls-1,.cls-2,.cls-3,.cls-4,.cls-5,.cls-6,.cls-7,.cls-8{fill:#40c5ff;}.cls-2{filter:url(#drop-shadow-3);}.cls-3{filter:url(#drop-shadow-7);}.cls-4{filter:url(#drop-shadow-5);}.cls-9{filter:url(#drop-shadow-9);}.cls-5{filter:url(#drop-shadow-4);}.cls-6{filter:url(#drop-shadow-10);}.cls-7{filter:url(#drop-shadow-6);}.cls-8{filter:url(#drop-shadow-8);}</style><filter id="drop-shadow-3" filterUnits="userSpaceOnUse"><feOffset dx="7" dy="7"/><feGaussianBlur result="blur" stdDeviation="2.83"/><feFlood flood-color="#424e8b" flood-opacity=".75"/><feComposite in2="blur" operator="in"/><feComposite in="SourceGraphic"/></filter><filter id="drop-shadow-4" filterUnits="userSpaceOnUse"><feOffset dx="7" dy="7"/><feGaussianBlur result="blur-2" stdDeviation="2.83"/><feFlood flood-color="#424e8b" flood-opacity=".75"/><feComposite in2="blur-2" operator="in"/><feComposite in="SourceGraphic"/></filter><filter id="drop-shadow-5" filterUnits="userSpaceOnUse"><feOffset dx="7" dy="7"/><feGaussianBlur result="blur-3" stdDeviation="2.83"/><feFlood flood-color="#424e8b" flood-opacity=".75"/><feComposite in2="blur-3" operator="in"/><feComposite in="SourceGraphic"/></filter><filter id="drop-shadow-6" filterUnits="userSpaceOnUse"><feOffset dx="7" dy="7"/><feGaussianBlur result="blur-4" stdDeviation="2.83"/><feFlood flood-color="#424e8b" flood-opacity=".75"/><feComposite in2="blur-4" operator="in"/><feComposite in="SourceGraphic"/></filter><filter id="drop-shadow-7" filterUnits="userSpaceOnUse"><feOffset dx="7" dy="7"/><feGaussianBlur result="blur-5" stdDeviation="2.83"/><feFlood flood-color="#424e8b" flood-opacity=".75"/><feComposite in2="blur-5" operator="in"/><feComposite in="SourceGraphic"/></filter><filter id="drop-shadow-8" filterUnits="userSpaceOnUse"><feOffset dx="7" dy="7"/><feGaussianBlur result="blur-6" stdDeviation="2.83"/><feFlood flood-color="#424e8b" flood-opacity=".75"/><feComposite in2="blur-6" operator="in"/><feComposite in="SourceGraphic"/></filter><filter id="drop-shadow-9" filterUnits="userSpaceOnUse"><feOffset dx="7" dy="7"/><feGaussianBlur result="blur-7" stdDeviation="2.83"/><feFlood flood-color="#424e8b" flood-opacity=".75"/><feComposite in2="blur-7" operator="in"/><feComposite in="SourceGraphic"/></filter><filter id="drop-shadow-10" filterUnits="userSpaceOnUse"><feOffset dx="7" dy="7"/><feGaussianBlur result="blur-8" stdDeviation="2.83"/><feFlood flood-color="#424e8b" flood-opacity=".75"/><feComposite in2="blur-8" operator="in"/><feComposite in="SourceGraphic"/></filter></defs><g><path class="cls-2" d="M760.6,651.48c5-8.66,27.95-17.77,27.95-17.77,7.63-32.58,17.17-36.04-8.76-46.79-25.93-10.75-35.15-8.13-35.15-8.13-18.25,36.02-27.95-17.61-27.95-17.61-5.37,7.82-14.49,2.35-29.37-2.8-14.88-5.15-24.23-7.39-24.53,14.22-.3,21.61-20.81,4.58-20.81,4.58l-28.44,6.3-.13-.08,.02,.11-.11,.02,.13,.08,6.59,28.38s24.21,11.15,4.85,20.74c-19.37,9.6-13.31,17.07-2.25,28.27,11.06,11.2,19.93,17.08,15.19,25.29,0,0,52.57-14.39,27.95,17.61,0,0,1.62,9.44,22.5,28.2,20.88,18.76,19.89,8.65,45.99-12.28,0,0-1.68-24.63,3.97-32.88,5.66-8.25,16.95,25.29,1.57,37.59-15.38,12.3-28.81,25.45,19.21,29.75,0,0,12.06,4.76,12,7.91-.06,3.15,4.78,9.73,17.35-1.35,12.57-11.08,14.38,3.04,9.96-23.51-4.42-26.55-7.81-21.21-4.42-26.55,3.39-5.34,18.81,44.95,38.78,34.01,13.46-7.37,17.84-9.77,19.27-10.55l.33,.21s0,0,.02-.4c.34-.19,.35-.19,.35-.19l-.33-.2c.09-1.63,.36-6.61,1.21-21.94,1.25-22.73-50.77-14.95-47.42-20.31,3.35-5.36,0,0,25.86-7.47,25.86-7.47,12.34-3.01,16.91-19.13,4.57-16.12-3.46-17.64-6.27-16.23-2.81,1.41-12.31-7.41-12.31-7.41-24.59-41.47-30.66-23.68-35.13-4.5-4.46,19.19-39.59,23.46-34.59,14.8Z"/><path class="cls-5" d="M752.64,364.03c-5-8.66-1.42-33.09-1.42-33.09-24.4-22.9-22.63-32.89-44.9-15.81-22.27,17.08-24.62,26.37-24.62,26.37,22.07,33.81-29.23,15.4-29.23,15.4,4.09,8.56-5.21,13.73-17.11,24.04-11.9,10.31-18.52,17.29,.05,28.36,18.57,11.07-6.44,20.31-6.44,20.31l-8.77,27.78-.14,.07,.11,.03-.03,.11,.14-.07,27.87,8.48s21.76-15.4,20.39,6.18c-1.37,21.57,8.13,20.06,23.36,16.08,15.23-3.98,24.76-8.73,29.5-.51,0,0,13.83-52.72,29.23-15.4,0,0,8.99,3.32,35.67-5.39s17.44-12.9,12.36-45.97c0,0-22.18-10.86-26.49-19.88-4.31-9.02,30.37-2.04,33.34,17.43,2.96,19.47,7.64,37.67,35.37-1.76,0,0,10.15-8.06,12.85-6.44,2.69,1.63,10.81,.73,7.5-15.7-3.31-16.42,9.83-10.94-15.38-20.38-25.2-9.45-22.28-3.84-25.2-9.45-2.93-5.61,48.33,6.18,48.85-16.58,.35-15.34,.46-20.34,.5-21.96l.34-.18s0,0-.33-.22c0-.39,0-.4,0-.4l-.34,.18c-1.36-.89-5.54-3.62-18.39-12.01-19.06-12.45-38.33,36.49-41.3,30.91-2.97-5.58,0,0,6.46-26.13,6.46-26.13,3.56-12.19-8.11-24.21-11.68-12.02-17.01-5.83-17.19-2.69-.18,3.14-12.57,6.96-12.57,6.96-48.21,.56-35.84,14.71-21.46,28.17,14.38,13.46,.53,46.01-4.48,37.35Z"/><path class="cls-4" d="M496.92,224.95c-9.99,.39-29.94-14.17-29.94-14.17-31.63,10.92-39.65,4.69-34.91,32.36,4.73,27.67,11.86,34.07,11.86,34.07,40.2-3.77,0,33.04,0,33.04,9.48,.37,9.72,11.01,13.3,26.34,3.58,15.33,6.67,24.44,25.11,13.17,18.45-11.27,14.97,15.16,14.97,15.16l20.49,20.7v.16s.08-.08,.08-.08l.08,.08v-.16s20.5-20.7,20.5-20.7c0,0-3.48-26.43,14.97-15.16,18.45,11.27,21.53,2.16,25.11-13.17,3.58-15.33,3.82-25.97,13.3-26.34,0,0-40.2-36.81,0-33.04,0,0,7.13-6.4,11.86-34.07s-3.28-21.44-34.91-32.36c0,0-19.94,14.56-29.94,14.17-9.99-.39,12.35-27.82,30.96-21.37,18.61,6.45,36.89,10.8,14.92-32.11,0,0-2.4-12.74,.29-14.37,2.69-1.62,5.68-9.23-10.39-13.96-16.07-4.73-5.1-13.79-25.2,4.11s-13.78,17.92-20.1,17.9c-6.32-.02,27.99-39.88,8.1-50.94-13.41-7.46-17.78-9.88-19.2-10.67v-.38s0,0-.35,.19c-.34-.19-.35-.19-.35-.19v.38c-1.42,.79-5.79,3.22-19.2,10.67-19.89,11.06,14.42,50.92,8.1,50.94-6.32,.02,0,0-20.1-17.9-20.1-17.9-9.13-8.84-25.2-4.11-16.07,4.73-13.08,12.33-10.39,13.96,2.69,1.62,.29,14.37,.29,14.37-21.97,42.91-3.69,38.57,14.92,32.11,18.61-6.45,40.96,20.98,30.96,21.37Z"/><path class="cls-7" d="M249.91,385.68c-4.54,8.91-26.98,19.21-26.98,19.21-5.91,32.93-15.25,36.89,11.2,46.27,26.46,9.37,35.53,6.28,35.53,6.28,16.33-36.93,28.83,16.12,28.83,16.12,4.95-8.09,14.35-3.11,29.48,1.25,15.13,4.36,24.59,6.11,23.76-15.49-.83-21.6,20.54-5.66,20.54-5.66l28.07-7.78,.14,.08-.03-.11,.11-.03-.14-.08-8.07-27.99s-24.77-9.86-5.93-20.46c18.84-10.6,12.39-17.74,.76-28.35-11.63-10.61-20.8-16.01-16.5-24.46,0,0-51.75,17.12-28.83-16.12,0,0-2.11-9.35-23.95-26.98-21.84-17.63-20.32-7.6-45.28,14.68,0,0,2.97,24.51-2.25,33.05-5.22,8.53-18.26-24.36-3.54-37.45,14.72-13.09,27.43-26.93-20.74-28.7,0,0-12.29-4.12-12.4-7.27-.1-3.14-5.28-9.46-17.25,2.26-11.97,11.72-14.52-2.28-8.72,24,5.81,26.28,8.91,20.77,5.81,26.28s-21.15-43.9-40.51-31.93c-13.05,8.07-17.3,10.69-18.69,11.55l-.34-.19s0,0,0,.4c-.33,.21-.34,.21-.34,.21l.34,.19c0,1.63-.02,6.62-.06,21.97-.06,22.76,51.48,12.26,48.41,17.79-3.06,5.53,0,0-25.43,8.81-25.43,8.81-12.17,3.65-15.88,19.99-3.72,16.34,4.38,17.44,7.11,15.88,2.73-1.56,12.68,6.76,12.68,6.76,26.73,40.12,31.86,22.04,35.31,2.65,3.45-19.39,38.3-25.51,33.76-16.59Z"/><path class="cls-3" d="M272.93,672.32c5.45,8.39,3.15,32.97,3.15,32.97,25.57,21.58,24.32,31.66,45.67,13.43,21.35-18.23,23.2-27.63,23.2-27.63-23.81-32.61,28.38-16.91,28.38-16.91-4.53-8.33,4.48-13.98,15.82-24.9,11.34-10.92,17.58-18.24-1.54-28.32-19.12-10.08,5.36-20.62,5.36-20.62l7.3-28.2,.13-.08-.11-.03,.03-.11-.13,.08-28.28-7.01s-20.92,16.52-20.68-5.1c.24-21.61-9.17-19.6-24.17-14.83-15,4.77-24.26,10.01-29.43,2.06,0,0-11.04,53.37-28.38,16.91,0,0-9.15-2.85-35.34,7.25-26.19,10.09-16.74,13.8-9.93,46.56,0,0,22.72,9.68,27.5,18.47,4.78,8.79-30.23,3.63-34.21-15.66-3.98-19.29-9.61-37.22-35.23,3.62,0,0-9.72,8.58-12.49,7.1-2.77-1.48-10.83-.16-6.67,16.07,4.16,16.23-9.24,11.44,16.42,19.55,25.66,8.11,22.45,2.67,25.66,8.11,3.22,5.44-48.59-3.64-47.91,19.11,.46,15.34,.61,20.33,.66,21.96l-.33,.2s0,0,.34,.2c.01,.39,.01,.4,.01,.4l.33-.2c1.41,.82,5.73,3.33,19,11.03,19.68,11.43,36.36-38.45,39.62-33.03,3.26,5.42,0,0-5.08,26.43-5.08,26.43-2.92,12.36,9.37,23.75,12.29,11.39,17.29,4.93,17.31,1.78,.02-3.15,12.19-7.61,12.19-7.61,48.11-3.09,35.02-16.57,19.95-29.26-15.07-12.68-2.94-45.92,2.51-37.54Z"/><path class="cls-8" d="M529.6,799.05c9.99-.39,29.94,14.17,29.94,14.17,31.63-10.92,39.65-4.69,34.91-32.36-4.73-27.67-11.86-34.07-11.86-34.07-40.2,3.77,0-33.04,0-33.04-9.48-.37-9.72-11.01-13.3-26.34-3.58-15.33-6.67-24.44-25.11-13.17-18.45,11.27-14.97-15.16-14.97-15.16l-20.49-20.7v-.16s-.08,.08-.08,.08l-.08-.08v.16s-20.5,20.7-20.5,20.7c0,0,3.48,26.43-14.97,15.16-18.45-11.27-21.53-2.16-25.11,13.17-3.58,15.33-3.82,25.97-13.3,26.34,0,0,40.2,36.81,0,33.04,0,0-7.13,6.4-11.86,34.07-4.73,27.67,3.28,21.44,34.91,32.36,0,0,19.94-14.56,29.94-14.17s-12.35,27.82-30.96,21.37c-18.61-6.45-36.89-10.8-14.92,32.11,0,0,2.4,12.74-.29,14.37-2.69,1.62-5.68,9.23,10.39,13.96,16.07,4.73,5.1,13.79,25.2-4.11,20.1-17.9,13.78-17.92,20.1-17.9,6.32,.02-27.99,39.88-8.1,50.94,13.41,7.46,17.78,9.88,19.2,10.67v.38s0,0,.35-.19c.34,.19,.35,.19,.35,.19v-.38c1.42-.79,5.79-3.22,19.2-10.67,19.89-11.06-14.42-50.92-8.1-50.94,6.32-.02,0,0,20.1,17.9,20.1,17.9,9.13,8.84,25.2,4.11,16.07-4.73,13.08-12.33,10.39-13.96-2.69-1.62-.29-14.37-.29-14.37,21.97-42.91,3.69-38.57-14.92-32.11-18.61,6.45-40.96-20.98-30.96-21.37Z"/></g><g class="cls-9"><polygon class="cls-1" points="364.08 530 421.22 628.97 478.36 530 364.08 530"/><path class="cls-1" d="M545.13,530c-.33,0-.64-.03-.96-.05l57.89,100.27,57.86-100.22h-114.79Z"/><polygon class="cls-1" points="479.11 493 421.88 393.88 364.66 493 479.11 493"/><path class="cls-1" d="M546.14,486.81c-.85,1.47-1.89,2.77-3.04,3.91-.25,.86-.54,1.7-.91,2.53,.96-.15,1.94-.26,2.95-.26h114.21l-58.39-101.13-54.81,94.94Z"/><polygon class="cls-1" points="511.28 546.98 452.32 649.1 570.24 649.1 511.28 546.98"/><path class="cls-1" d="M453.65,374.9l57.26,99.18c.45-.57,.94-1.11,1.45-1.61,.41-1.42,.97-2.82,1.74-4.16l53.93-93.41h-114.38Z"/></g><polygon class="cls-6" points="565.75 480.97 512 449.94 458.25 480.97 458.25 543.03 512 574.06 565.75 543.03 565.75 480.97"/></svg>